<svg width="158" height="82" viewBox="0 0 158 82" fill="none" xmlns="http://www.w3.org/2000/svg">
<path d="M51.5193 27.9227C51.1863 26.5649 50.6611 25.3736 49.9437 24.3488C49.2264 23.2984 48.3297 22.4145 47.2536 21.6971C46.2032 20.9541 44.9735 20.4033 43.5644 20.0446C42.1809 19.6603 40.6565 19.4682 38.9912 19.4682C35.4044 19.4682 32.3429 20.3264 29.8065 22.043C27.2958 23.7595 25.3743 26.2318 24.042 29.4599C22.7354 32.688 22.0821 36.5823 22.0821 41.1426C22.0821 45.7542 22.7098 49.6996 23.9652 52.979C25.2205 56.2583 27.0908 58.7691 29.5759 60.5112C32.061 62.2534 35.1482 63.1244 38.8375 63.1244C42.0912 63.1244 44.7941 62.6505 46.9462 61.7025C49.1239 60.7546 50.7507 59.4096 51.8268 57.6674C52.9028 55.9253 53.4408 53.8757 53.4408 51.5186L57.1301 51.9029H39.1449V36.6847H74.0392V47.5988C74.0392 54.7724 72.5148 60.9083 69.4661 66.0067C66.4429 71.0794 62.2669 74.9736 56.9379 77.6893C51.6346 80.3794 45.5499 81.7245 38.6838 81.7245C31.0234 81.7245 24.2982 80.0976 18.5081 76.8439C12.718 73.5902 8.19614 68.953 4.94241 62.9323C1.71431 56.9116 0.100257 49.7509 0.100257 41.45C0.100257 34.9426 1.08662 29.1781 3.05935 24.1566C5.0577 19.1351 7.82465 14.895 11.3602 11.4364C14.8957 7.95205 18.9821 5.32601 23.6193 3.55824C28.2565 1.76485 33.2268 0.868154 38.5301 0.868154C43.1929 0.868154 47.5226 1.53427 51.5193 2.86651C55.5417 4.17312 59.09 6.04337 62.1644 8.47726C65.2644 10.8855 67.7623 13.7421 69.6582 17.0471C71.5541 20.3521 72.707 23.9773 73.1169 27.9227H51.5193Z" fill="white"/>
<path d="M135.114 27.9227C134.781 26.5649 134.256 25.3736 133.538 24.3488C132.821 23.2984 131.924 22.4145 130.848 21.6971C129.798 20.9541 128.568 20.4033 127.159 20.0446C125.775 19.6603 124.251 19.4682 122.586 19.4682C118.999 19.4682 115.937 20.3264 113.401 22.043C110.89 23.7595 108.969 26.2318 107.636 29.4599C106.33 32.688 105.677 36.5823 105.677 41.1426C105.677 45.7542 106.304 49.6996 107.56 52.979C108.815 56.2583 110.685 58.7691 113.17 60.5112C115.655 62.2534 118.743 63.1244 122.432 63.1244C125.686 63.1244 128.389 62.6505 130.541 61.7025C132.718 60.7546 134.345 59.4096 135.421 57.6674C136.497 55.9253 137.035 53.8757 137.035 51.5186L140.725 51.9029H122.739V36.6847H157.634V47.5988C157.634 54.7724 156.109 60.9083 153.061 66.0067C150.037 71.0794 145.861 74.9736 140.532 77.6893C135.229 80.3794 129.144 81.7245 122.278 81.7245C114.618 81.7245 107.893 80.0976 102.103 76.8439C96.3125 73.5902 91.7906 68.953 88.5368 62.9323C85.3087 56.9116 83.6947 49.7509 83.6947 41.45C83.6947 34.9426 84.6811 29.1781 86.6538 24.1566C88.6521 19.1351 91.4191 14.895 94.9546 11.4364C98.4902 7.95205 102.577 5.32601 107.214 3.55824C111.851 1.76485 116.821 0.868154 122.125 0.868154C126.787 0.868154 131.117 1.53427 135.114 2.86651C139.136 4.17312 142.684 6.04337 145.759 8.47726C148.859 10.8855 151.357 13.7421 153.253 17.0471C155.149 20.3521 156.301 23.9773 156.711 27.9227H135.114Z" fill="#FC9800"/>
</svg>
