<svg width="286" height="59" viewBox="0 0 286 59" fill="none" xmlns="http://www.w3.org/2000/svg">
<g clip-path="url(#clip0_1_655)">
<path d="M23.5587 52.7898C36.2711 52.7898 46.5766 42.4843 46.5766 29.7718C46.5766 17.0594 36.2711 6.75391 23.5587 6.75391C10.8462 6.75391 0.540771 17.0594 0.540771 29.7718C0.540771 42.4843 10.8462 52.7898 23.5587 52.7898Z" fill="url(#paint0_linear_1_655)"/>
<path fill-rule="evenodd" clip-rule="evenodd" d="M10.9387 29.5208C17.6433 26.5808 22.1249 24.6806 24.3837 23.7484C30.7656 21.0952 32.0922 20.6291 32.9527 20.5933C33.132 20.5933 33.5622 20.6291 33.849 20.8442C34.0641 21.0235 34.1358 21.2745 34.1717 21.4537C34.2076 21.633 34.2434 22.0274 34.2076 22.3501C33.849 25.9713 32.379 34.8271 31.5903 38.8785C31.2676 40.5995 30.6222 41.1732 30.0127 41.2449C28.6861 41.3524 27.6464 40.3485 26.3556 39.5239C24.3478 38.1973 23.2005 37.3727 21.2286 36.082C18.9698 34.5761 20.4398 33.7515 21.7305 32.4249C22.0532 32.0664 27.9691 26.7242 28.0766 26.2223C28.0766 26.1505 28.1125 25.9354 27.9691 25.8279C27.8256 25.7203 27.6464 25.7562 27.503 25.792C27.2878 25.8279 24.061 27.9791 17.7867 32.2098C16.8545 32.8551 16.0298 33.142 15.2769 33.142C14.4523 33.142 12.8747 32.6759 11.6916 32.2815C10.2574 31.8154 9.11013 31.5644 9.21769 30.7756C9.28939 30.3813 9.86305 29.951 10.9387 29.5208Z" fill="white"/>
</g>
<path d="M70.4499 17.146V11.8448H98.3021V17.146H87.5124V46.7539H81.2396V17.146H70.4499ZM111.193 47.2653C108.568 47.2653 106.301 46.7198 104.392 45.6289C102.494 44.5266 101.034 42.9698 100.011 40.9585C98.9882 38.9357 98.4769 36.555 98.4769 33.8164C98.4769 31.1232 98.9882 28.7596 100.011 26.7255C101.045 24.68 102.488 23.0891 104.34 21.9528C106.193 20.805 108.369 20.2312 110.869 20.2312C112.483 20.2312 114.005 20.4925 115.437 21.0153C116.88 21.5266 118.153 22.3221 119.255 23.4016C120.369 24.4812 121.244 25.8562 121.88 27.5266C122.517 29.1857 122.835 31.163 122.835 33.4585V35.3505H101.375V31.1914H116.92C116.909 30.0096 116.653 28.9585 116.153 28.038C115.653 27.1062 114.954 26.3732 114.056 25.8391C113.17 25.305 112.136 25.038 110.954 25.038C109.693 25.038 108.585 25.3448 107.63 25.9585C106.676 26.5607 105.931 27.3562 105.397 28.3448C104.875 29.3221 104.608 30.396 104.596 31.5664V35.1971C104.596 36.7198 104.875 38.0266 105.431 39.1175C105.988 40.1971 106.767 41.0266 107.767 41.6062C108.767 42.1744 109.937 42.4585 111.278 42.4585C112.176 42.4585 112.988 42.3335 113.715 42.0835C114.443 41.8221 115.073 41.4414 115.608 40.9414C116.142 40.4414 116.545 39.8221 116.818 39.0835L122.579 39.7312C122.215 41.2539 121.522 42.5835 120.5 43.7198C119.488 44.8448 118.193 45.7198 116.613 46.3448C115.034 46.9585 113.227 47.2653 111.193 47.2653ZM134.225 11.8448V46.7539H128.055V11.8448H134.225ZM152.162 47.2653C149.537 47.2653 147.269 46.7198 145.36 45.6289C143.463 44.5266 142.002 42.9698 140.98 40.9585C139.957 38.9357 139.446 36.555 139.446 33.8164C139.446 31.1232 139.957 28.7596 140.98 26.7255C142.014 24.68 143.457 23.0891 145.309 21.9528C147.162 20.805 149.338 20.2312 151.838 20.2312C153.451 20.2312 154.974 20.4925 156.406 21.0153C157.849 21.5266 159.122 22.3221 160.224 23.4016C161.338 24.4812 162.213 25.8562 162.849 27.5266C163.485 29.1857 163.804 31.163 163.804 33.4585V35.3505H142.343V31.1914H157.889C157.877 30.0096 157.622 28.9585 157.122 28.038C156.622 27.1062 155.923 26.3732 155.025 25.8391C154.139 25.305 153.105 25.038 151.923 25.038C150.662 25.038 149.554 25.3448 148.599 25.9585C147.644 26.5607 146.9 27.3562 146.366 28.3448C145.843 29.3221 145.576 30.396 145.565 31.5664V35.1971C145.565 36.7198 145.843 38.0266 146.4 39.1175C146.957 40.1971 147.735 41.0266 148.735 41.6062C149.735 42.1744 150.906 42.4585 152.247 42.4585C153.144 42.4585 153.957 42.3335 154.684 42.0835C155.412 41.8221 156.042 41.4414 156.576 40.9414C157.11 40.4414 157.514 39.8221 157.787 39.0835L163.548 39.7312C163.184 41.2539 162.491 42.5835 161.468 43.7198C160.457 44.8448 159.162 45.7198 157.582 46.3448C156.002 46.9585 154.196 47.2653 152.162 47.2653ZM180.41 57.1175C178.194 57.1175 176.291 56.8164 174.7 56.2141C173.109 55.6232 171.831 54.8278 170.865 53.8278C169.899 52.8278 169.228 51.7198 168.853 50.5039L174.41 49.1573C174.66 49.6687 175.024 50.1744 175.501 50.6744C175.978 51.1857 176.62 51.6062 177.427 51.9357C178.245 52.2766 179.274 52.4471 180.512 52.4471C182.262 52.4471 183.711 52.021 184.859 51.1687C186.007 50.3278 186.581 48.9414 186.581 47.0096V42.0494H186.274C185.956 42.6857 185.49 43.3391 184.876 44.0096C184.274 44.68 183.473 45.2425 182.473 45.6971C181.484 46.1516 180.24 46.3789 178.74 46.3789C176.728 46.3789 174.904 45.9073 173.268 44.9641C171.643 44.0096 170.348 42.5891 169.382 40.7028C168.427 38.805 167.95 36.43 167.95 33.5778C167.95 30.7028 168.427 28.2766 169.382 26.2994C170.348 24.3107 171.649 22.805 173.285 21.7823C174.921 20.7482 176.745 20.2312 178.757 20.2312C180.291 20.2312 181.552 20.4925 182.541 21.0153C183.541 21.5266 184.336 22.146 184.927 22.8732C185.518 23.5891 185.967 24.2653 186.274 24.9016H186.615V20.5721H192.7V47.18C192.7 49.4187 192.166 51.271 191.098 52.7369C190.029 54.2028 188.569 55.2994 186.717 56.0266C184.865 56.7539 182.762 57.1175 180.41 57.1175ZM180.461 41.538C181.768 41.538 182.882 41.2198 183.802 40.5835C184.723 39.9471 185.421 39.0323 185.899 37.8391C186.376 36.646 186.615 35.2141 186.615 33.5437C186.615 31.896 186.376 30.4528 185.899 29.2141C185.433 27.9755 184.74 27.0153 183.819 26.3335C182.91 25.6403 181.791 25.2937 180.461 25.2937C179.086 25.2937 177.938 25.6516 177.018 26.3675C176.098 27.0835 175.404 28.0664 174.938 29.3164C174.473 30.555 174.24 31.9641 174.24 33.5437C174.24 35.146 174.473 36.5494 174.938 37.7539C175.416 38.9471 176.115 39.8789 177.035 40.5494C177.967 41.2085 179.109 41.538 180.461 41.538ZM199.024 46.7539V20.5721H205.007V24.9357H205.279C205.757 23.4244 206.575 22.2596 207.734 21.4414C208.904 20.6119 210.24 20.1971 211.74 20.1971C212.081 20.1971 212.461 20.2141 212.882 20.2482C213.313 20.271 213.671 20.3107 213.956 20.3675V26.0437C213.694 25.9528 213.279 25.8732 212.711 25.805C212.154 25.7255 211.615 25.6857 211.092 25.6857C209.967 25.6857 208.956 25.93 208.058 26.4187C207.171 26.896 206.473 27.5607 205.961 28.413C205.45 29.2653 205.194 30.2482 205.194 31.3619V46.7539H199.024ZM225.12 47.2823C223.461 47.2823 221.967 46.9869 220.637 46.396C219.319 45.7937 218.274 44.9073 217.501 43.7369C216.74 42.5664 216.359 41.1232 216.359 39.4073C216.359 37.93 216.632 36.7085 217.177 35.7425C217.723 34.7766 218.467 34.0039 219.41 33.4244C220.353 32.8448 221.416 32.4073 222.598 32.1119C223.791 31.805 225.024 31.5835 226.296 31.4471C227.831 31.288 229.075 31.146 230.029 31.021C230.984 30.8846 231.677 30.68 232.109 30.4073C232.552 30.1232 232.774 29.6857 232.774 29.0948V28.9925C232.774 27.7085 232.393 26.7141 231.632 26.0096C230.87 25.305 229.774 24.9528 228.342 24.9528C226.831 24.9528 225.632 25.2823 224.745 25.9414C223.87 26.6005 223.279 27.3789 222.973 28.2766L217.211 27.4585C217.666 25.8675 218.416 24.538 219.461 23.4698C220.507 22.3903 221.785 21.5835 223.296 21.0494C224.808 20.5039 226.478 20.2312 228.308 20.2312C229.569 20.2312 230.825 20.3789 232.075 20.6744C233.325 20.9698 234.467 21.4585 235.501 22.1403C236.535 22.8107 237.365 23.7255 237.99 24.8846C238.626 26.0437 238.944 27.4925 238.944 29.2312V46.7539H233.012V43.1573H232.808C232.433 43.8846 231.904 44.5664 231.223 45.2028C230.552 45.8278 229.706 46.3335 228.683 46.7198C227.671 47.0948 226.484 47.2823 225.12 47.2823ZM226.723 42.7482C227.961 42.7482 229.035 42.5039 229.944 42.0153C230.853 41.5153 231.552 40.8562 232.041 40.038C232.541 39.2198 232.791 38.3278 232.791 37.3619V34.2766C232.598 34.4357 232.268 34.5835 231.802 34.7198C231.348 34.8562 230.836 34.9755 230.268 35.0778C229.7 35.18 229.137 35.271 228.581 35.3505C228.024 35.43 227.541 35.4982 227.132 35.555C226.211 35.68 225.387 35.8846 224.66 36.1687C223.933 36.4528 223.359 36.8505 222.938 37.3619C222.518 37.8619 222.308 38.5096 222.308 39.305C222.308 40.4414 222.723 41.2994 223.552 41.8789C224.382 42.4585 225.438 42.7482 226.723 42.7482ZM245.149 46.7539V20.5721H251.046V25.021H251.353C251.899 23.521 252.802 22.3505 254.063 21.5096C255.325 20.6573 256.831 20.2312 258.581 20.2312C260.353 20.2312 261.848 20.663 263.063 21.5266C264.291 22.3789 265.154 23.5437 265.654 25.021H265.927C266.507 23.5664 267.484 22.4073 268.859 21.5437C270.245 20.6687 271.887 20.2312 273.785 20.2312C276.194 20.2312 278.16 20.9925 279.683 22.5153C281.206 24.038 281.967 26.2596 281.967 29.18V46.7539H275.779V30.1346C275.779 28.5096 275.348 27.3221 274.484 26.5721C273.62 25.8107 272.563 25.43 271.313 25.43C269.825 25.43 268.66 25.896 267.819 26.8278C266.99 27.7482 266.575 28.9471 266.575 30.4244V46.7539H260.524V29.8789C260.524 28.5266 260.115 27.4471 259.296 26.6403C258.49 25.8335 257.433 25.43 256.126 25.43C255.24 25.43 254.433 25.6573 253.706 26.1119C252.978 26.555 252.399 27.1857 251.967 28.0039C251.535 28.8107 251.319 29.7539 251.319 30.8335V46.7539H245.149Z" fill="white"/>
<defs>
<linearGradient id="paint0_linear_1_655" x1="0.540771" y1="29.7552" x2="46.5433" y2="29.7552" gradientUnits="userSpaceOnUse">
<stop stop-color="#2AABEE"/>
<stop offset="1" stop-color="#229ED9"/>
</linearGradient>
<clipPath id="clip0_1_655">
<rect width="46" height="46" fill="white" transform="translate(0.540771 6.75391)"/>
</clipPath>
</defs>
</svg>
