<svg width="224" height="59" viewBox="0 0 224 59" fill="none" xmlns="http://www.w3.org/2000/svg">
<g clip-path="url(#clip0_1_650)">
<path d="M36.7497 6.75391H43.7698L28.4365 26.2784L46.5409 52.7539H32.316L21.2317 36.705L8.48467 52.7539H1.46459L17.9064 31.9006L0.540894 6.75391H15.1353L25.2035 21.4739L36.7497 6.75391ZM34.2558 48.0517H38.1353L13.0108 11.1495H8.76178L34.2558 48.0517Z" fill="white"/>
</g>
<path d="M84.7851 20.5721V25.3448H69.734V20.5721H84.7851ZM73.4499 14.2994H79.6203V38.8789C79.6203 39.7085 79.7453 40.3448 79.9953 40.788C80.2567 41.2198 80.5976 41.5153 81.018 41.6744C81.4385 41.8335 81.9044 41.913 82.4158 41.913C82.8021 41.913 83.1544 41.8846 83.4726 41.8278C83.8021 41.771 84.0521 41.7198 84.2226 41.6744L85.2624 46.4982C84.9328 46.6119 84.4612 46.7369 83.8476 46.8732C83.2453 47.0096 82.5067 47.0891 81.6317 47.1119C80.0862 47.1573 78.6942 46.9244 77.4555 46.413C76.2169 45.8903 75.234 45.0835 74.5067 43.9925C73.7908 42.9016 73.4385 41.538 73.4499 39.9016V14.2994ZM95.349 46.7539L87.9513 20.5721H94.2411L98.8433 38.9812H99.082L103.787 20.5721H110.008L114.713 38.8789H114.968L119.502 20.5721H125.809L118.394 46.7539H111.968L107.059 29.0607H106.701L101.792 46.7539H95.349ZM130.117 46.7539V20.5721H136.288V46.7539H130.117ZM133.22 16.8562C132.242 16.8562 131.402 16.5323 130.697 15.8846C129.992 15.2255 129.64 14.4357 129.64 13.5153C129.64 12.5835 129.992 11.7937 130.697 11.1459C131.402 10.4869 132.242 10.1573 133.22 10.1573C134.208 10.1573 135.049 10.4869 135.742 11.1459C136.447 11.7937 136.799 12.5835 136.799 13.5153C136.799 14.4357 136.447 15.2255 135.742 15.8846C135.049 16.5323 134.208 16.8562 133.22 16.8562ZM155.707 20.5721V25.3448H140.656V20.5721H155.707ZM144.372 14.2994H150.542V38.8789C150.542 39.7085 150.667 40.3448 150.917 40.788C151.179 41.2198 151.519 41.5153 151.94 41.6744C152.36 41.8335 152.826 41.913 153.338 41.913C153.724 41.913 154.076 41.8846 154.394 41.8278C154.724 41.771 154.974 41.7198 155.144 41.6744L156.184 46.4982C155.855 46.6119 155.383 46.7369 154.769 46.8732C154.167 47.0096 153.429 47.0891 152.554 47.1119C151.008 47.1573 149.616 46.9244 148.377 46.413C147.139 45.8903 146.156 45.0835 145.429 43.9925C144.713 42.9016 144.36 41.538 144.372 39.9016V14.2994ZM173.941 20.5721V25.3448H158.89V20.5721H173.941ZM162.606 14.2994H168.777V38.8789C168.777 39.7085 168.902 40.3448 169.152 40.788C169.413 41.2198 169.754 41.5153 170.174 41.6744C170.595 41.8335 171.061 41.913 171.572 41.913C171.958 41.913 172.311 41.8846 172.629 41.8278C172.958 41.771 173.208 41.7198 173.379 41.6744L174.419 46.4982C174.089 46.6119 173.617 46.7369 173.004 46.8732C172.402 47.0096 171.663 47.0891 170.788 47.1119C169.242 47.1573 167.85 46.9244 166.612 46.413C165.373 45.8903 164.39 45.0835 163.663 43.9925C162.947 42.9016 162.595 41.538 162.606 39.9016V14.2994ZM190.412 47.2653C187.787 47.2653 185.519 46.7198 183.61 45.6289C181.713 44.5266 180.252 42.9698 179.23 40.9585C178.207 38.9357 177.696 36.555 177.696 33.8164C177.696 31.1232 178.207 28.7596 179.23 26.7255C180.264 24.68 181.707 23.0891 183.559 21.9528C185.412 20.805 187.588 20.2312 190.088 20.2312C191.701 20.2312 193.224 20.4925 194.656 21.0153C196.099 21.5266 197.372 22.3221 198.474 23.4016C199.588 24.4812 200.463 25.8562 201.099 27.5266C201.735 29.1857 202.054 31.163 202.054 33.4585V35.3505H180.593V31.1914H196.139C196.127 30.0096 195.872 28.9585 195.372 28.038C194.872 27.1062 194.173 26.3732 193.275 25.8391C192.389 25.305 191.355 25.038 190.173 25.038C188.912 25.038 187.804 25.3448 186.849 25.9585C185.894 26.5607 185.15 27.3562 184.616 28.3448C184.093 29.3221 183.826 30.396 183.815 31.5664V35.1971C183.815 36.7198 184.093 38.0266 184.65 39.1175C185.207 40.1971 185.985 41.0266 186.985 41.6062C187.985 42.1744 189.156 42.4585 190.497 42.4585C191.394 42.4585 192.207 42.3335 192.934 42.0835C193.662 41.8221 194.292 41.4414 194.826 40.9414C195.36 40.4414 195.764 39.8221 196.037 39.0835L201.798 39.7312C201.434 41.2539 200.741 42.5835 199.718 43.7198C198.707 44.8448 197.412 45.7198 195.832 46.3448C194.252 46.9585 192.446 47.2653 190.412 47.2653ZM207.274 46.7539V20.5721H213.257V24.9357H213.529C214.007 23.4244 214.825 22.2596 215.984 21.4414C217.154 20.6119 218.49 20.1971 219.99 20.1971C220.331 20.1971 220.711 20.2141 221.132 20.2482C221.563 20.271 221.921 20.3107 222.206 20.3675V26.0437C221.944 25.9528 221.529 25.8732 220.961 25.805C220.404 25.7255 219.865 25.6857 219.342 25.6857C218.217 25.6857 217.206 25.93 216.308 26.4187C215.421 26.896 214.723 27.5607 214.211 28.413C213.7 29.2653 213.444 30.2482 213.444 31.3619V46.7539H207.274Z" fill="white"/>
<defs>
<clipPath id="clip0_1_650">
<rect width="46" height="46" fill="white" transform="translate(0.540771 6.75391)"/>
</clipPath>
</defs>
</svg>
