<svg width="235" height="59" viewBox="0 0 235 59" fill="none" xmlns="http://www.w3.org/2000/svg">
<g clip-path="url(#clip0_1_650)">
<path d="M36.7497 6.75391H43.7698L28.4365 26.2784L46.5409 52.7539H32.316L21.2317 36.705L8.48467 52.7539H1.46459L17.9064 31.9006L0.540894 6.75391H15.1353L25.2035 21.4739L36.7497 6.75391ZM34.2558 48.0517H38.1353L13.0108 11.1495H8.76178L34.2558 48.0517Z" fill="white"/>
</g>
<path d="M70.4499 17.146V11.8448H98.3021V17.146H87.5124V46.7539H81.2396V17.146H70.4499ZM105.802 46.7539L98.4044 20.5721H104.694L109.296 38.9812H109.535L114.24 20.5721H120.461L125.166 38.8789H125.421L129.956 20.5721H136.262L128.848 46.7539H122.421L117.512 29.0607H117.154L112.245 46.7539H105.802ZM140.571 46.7539V20.5721H146.741V46.7539H140.571ZM143.673 16.8562C142.696 16.8562 141.855 16.5323 141.15 15.8846C140.446 15.2255 140.093 14.4357 140.093 13.5153C140.093 12.5835 140.446 11.7937 141.15 11.1459C141.855 10.4869 142.696 10.1573 143.673 10.1573C144.662 10.1573 145.502 10.4869 146.196 11.1459C146.9 11.7937 147.252 12.5835 147.252 13.5153C147.252 14.4357 146.9 15.2255 146.196 15.8846C145.502 16.5323 144.662 16.8562 143.673 16.8562ZM166.16 20.5721V25.3448H151.109V20.5721H166.16ZM154.825 14.2994H160.995V38.8789C160.995 39.7085 161.12 40.3448 161.37 40.788C161.632 41.2198 161.973 41.5153 162.393 41.6744C162.813 41.8335 163.279 41.913 163.791 41.913C164.177 41.913 164.529 41.8846 164.848 41.8278C165.177 41.771 165.427 41.7198 165.598 41.6744L166.637 46.4982C166.308 46.6119 165.836 46.7369 165.223 46.8732C164.62 47.0096 163.882 47.0891 163.007 47.1119C161.461 47.1573 160.069 46.9244 158.831 46.413C157.592 45.8903 156.609 45.0835 155.882 43.9925C155.166 42.9016 154.813 41.538 154.825 39.9016V14.2994ZM184.394 20.5721V25.3448H169.343V20.5721H184.394ZM173.059 14.2994H179.23V38.8789C179.23 39.7085 179.355 40.3448 179.605 40.788C179.866 41.2198 180.207 41.5153 180.627 41.6744C181.048 41.8335 181.514 41.913 182.025 41.913C182.412 41.913 182.764 41.8846 183.082 41.8278C183.412 41.771 183.662 41.7198 183.832 41.6744L184.872 46.4982C184.542 46.6119 184.071 46.7369 183.457 46.8732C182.855 47.0096 182.116 47.0891 181.241 47.1119C179.696 47.1573 178.304 46.9244 177.065 46.413C175.826 45.8903 174.843 45.0835 174.116 43.9925C173.4 42.9016 173.048 41.538 173.059 39.9016V14.2994ZM200.865 47.2653C198.24 47.2653 195.973 46.7198 194.063 45.6289C192.166 44.5266 190.706 42.9698 189.683 40.9585C188.66 38.9357 188.149 36.555 188.149 33.8164C188.149 31.1232 188.66 28.7596 189.683 26.7255C190.717 24.68 192.16 23.0891 194.012 21.9528C195.865 20.805 198.041 20.2312 200.541 20.2312C202.154 20.2312 203.677 20.4925 205.109 21.0153C206.552 21.5266 207.825 22.3221 208.927 23.4016C210.041 24.4812 210.916 25.8562 211.552 27.5266C212.189 29.1857 212.507 31.163 212.507 33.4585V35.3505H191.046V31.1914H206.592C206.581 30.0096 206.325 28.9585 205.825 28.038C205.325 27.1062 204.626 26.3732 203.728 25.8391C202.842 25.305 201.808 25.038 200.626 25.038C199.365 25.038 198.257 25.3448 197.302 25.9585C196.348 26.5607 195.603 27.3562 195.069 28.3448C194.546 29.3221 194.279 30.396 194.268 31.5664V35.1971C194.268 36.7198 194.546 38.0266 195.103 39.1175C195.66 40.1971 196.438 41.0266 197.438 41.6062C198.438 42.1744 199.609 42.4585 200.95 42.4585C201.848 42.4585 202.66 42.3335 203.387 42.0835C204.115 41.8221 204.745 41.4414 205.279 40.9414C205.813 40.4414 206.217 39.8221 206.49 39.0835L212.251 39.7312C211.887 41.2539 211.194 42.5835 210.171 43.7198C209.16 44.8448 207.865 45.7198 206.285 46.3448C204.706 46.9585 202.899 47.2653 200.865 47.2653ZM217.727 46.7539V20.5721H223.71V24.9357H223.983C224.46 23.4244 225.278 22.2596 226.437 21.4414C227.608 20.6119 228.943 20.1971 230.443 20.1971C230.784 20.1971 231.164 20.2141 231.585 20.2482C232.017 20.271 232.375 20.3107 232.659 20.3675V26.0437C232.397 25.9528 231.983 25.8732 231.414 25.805C230.858 25.7255 230.318 25.6857 229.795 25.6857C228.67 25.6857 227.659 25.93 226.761 26.4187C225.875 26.896 225.176 27.5607 224.664 28.413C224.153 29.2653 223.897 30.2482 223.897 31.3619V46.7539H217.727Z" fill="white"/>
<defs>
<clipPath id="clip0_1_650">
<rect width="46" height="46" fill="white" transform="translate(0.540771 6.75391)"/>
</clipPath>
</defs>
</svg>
